{
	"asset": {
		"generator": "Blocks",
		"version": "0.69",
		"copyright": "Unknown"
	},
	"buffers": {
		"model": {
			"byteLength": 20402,
			"type": "arraybuffer",
			"uri": "model.bin"
		}
	},
	"accessors": {
		"accessor_position_m0-PolyPaper8_-134648": {
			"bufferView": "vec3BufferView",
			"byteOffset": 0,
			"byteStride": 12,
			"componentType": 5126,
			"count": 473,
			"max": [ 0.1848984, 1.511435, 0.2373001 ],
			"min": [ -0.09787228, -0.7287704, -1.12355 ],
			"type": "VEC3"
		 },
		"accessor_normal_m0-PolyPaper8_-134648": {
			"bufferView": "vec3BufferView",
			"byteOffset": 5676,
			"byteStride": 12,
			"componentType": 5126,
			"count": 473,
			"max": [ 0.999893, 0.9728476, 0.9728202 ],
			"min": [ -0.9998929, -0.555448, -0.9728202 ],
			"type": "VEC3"
		 },
		"accessor_color_m0-PolyPaper8_-134648": {
			"bufferView": "vec4BufferView",
			"byteOffset": 0,
			"byteStride": 16,
			"componentType": 5126,
			"count": 473,
			"max": [ 0.9568627, 0.2627451, 0.2117647, 1 ],
			"min": [ 0.1019608, 0.1019608, 0.1019608, 1 ],
			"type": "VEC4"
		 },
		"accessor_indices_0_m0-PolyPaper8_-134648": {
			"bufferView": "ushortBufferView",
			"byteOffset": 0,
			"byteStride": 0,
			"componentType": 5123,
			"count": 741,
			"max": [ 472 ],
			"min": [ 0 ],
			"type": "SCALAR"
		 }
	},
	"bufferViews": {
		"ushortBufferView": {
			"buffer": "model",
			"byteLength": 1482,
			"byteOffset": 0,
			"target": 34963
		},
		"vec3BufferView": {
			"buffer": "model",
			"byteLength": 11352,
			"byteOffset": 1482,
			"target": 34962
		},
		"vec4BufferView": {
			"buffer": "model",
			"byteLength": 7568,
			"byteOffset": 12834,
			"target": 34962
		}
	},
	"meshes": {
		"mesh_m0-PolyPaper8_-134648": {
			"name": "mesh_m0-PolyPaper8_-134648",
			"primitives": [
				{
					"attributes": {
						"POSITION": "accessor_position_m0-PolyPaper8_-134648",
						"NORMAL": "accessor_normal_m0-PolyPaper8_-134648",
						"COLOR": "accessor_color_m0-PolyPaper8_-134648"
					},
					"indices": "accessor_indices_0_m0-PolyPaper8_-134648",
					"material": "material_mat8",
					"mode": 4
				}
			]
		}
	},
	"shaders": {
		"vertex_mat8": {
			"type": 35633,
			"uri": "https://vr.google.com/shaders/w/vs.glsl"
		},
		"fragment_mat8": {
			"type": 35632,
			"uri": "https://vr.google.com/shaders/w/fs.glsl"
		}
	},
	"programs": {
		"program_mat8": {
			"attributes": [
				"a_position",
				"a_normal",
				"a_color"				
			],
			"vertexShader": "vertex_mat8",
			"fragmentShader": "fragment_mat8"
		}
	},
	"techniques": {
		"technique_mat8": {
			"program": "program_mat8",
			"extras": {"gvrss" : "https://vr.google.com/shaders/w/gvrss/paper.json"},
			"parameters": {
				"position": {
					"type": 35665,
					"semantic": "POSITION"
				},
				"normal": {
					"type": 35665,
					"semantic": "NORMAL"
				},
				"color": {
					"type": 35666,
					"semantic": "COLOR"
				},
				"modelViewMatrix": {
					"type": 35676,
					"semantic": "MODELVIEW"
				},
				"projectionMatrix": {
					"type": 35676,
					"semantic": "PROJECTION"
				},
				"normalMatrix": {
					"type": 35675,
					"semantic": "MODELVIEWINVERSETRANSPOSE"
				},
				"color": {
					"type": 35666
				},
				"roughness": {
					"type": 5126
				},
				"metallic": {
					"type": 5126
				},
				"light0Pos": {
					"type": 35666
				},
				"light0Color": {
					"type": 35666
				},
				"light1Pos": {
					"type": 35666
				},
				"light1Color": {
					"type": 35666
				}				
			},
			"attributes": {
				"a_position": "position",
				"a_normal": "normal",
				"a_color": "color"				
			},
			"uniforms": {
				"u_modelViewMatrix": "modelViewMatrix",
				"u_projectionMatrix": "projectionMatrix",
				"u_normalMatrix": "normalMatrix",
				"u_color": "color",
				"u_roughness": "roughness",
				"u_metallic": "metallic",
				"u_light0Pos": "light0Pos",
				"u_light0Color": "light0Color",
				"u_light1Pos": "light1Pos",
				"u_light1Color": "light1Color"				
			},
			"states": {
				"enable": [
					2929,
					2884
				],
				"functions": {
					"cullFace": [1029]
				}
			}
		}
	},
	"materials": {
		"material_mat8": {
			"technique": "technique_mat8",
			"values": {
				"color": [0.9568627, 0.2627451, 0.2117647, 1],
				"roughness": 0.8,
				"metallic": 0,
				"light0Pos": [-0.02, 4.11, -0.54, 0],
				"light0Color": [0.8, 0.8, 0.8, 0],
				"light1Pos": [0.02, -4.11, 0.54, 0],
				"light1Color": [0.64, 0.64, 0.64, 0]				
			},
			"name": "material_mat8"
		}
	},
	"nodes": {
		"node_MeshObject1320543808-PolyPaper8": {
			"name": "node_MeshObject1320543808-PolyPaper8",
			"meshes": [
				"mesh_m0-PolyPaper8_-134648"
			],
			"matrix": [1, 0, 0, 0, 0, 1, 0, 0, 0, 0, 1, 0, 0, 0, 0, 1]
		}
	},
	"scene": "defaultScene",
	"scenes": {
		"defaultScene": {
			"nodes": [
				"node_MeshObject1320543808-PolyPaper8"
			],
			"extras": {

			}
		}
	}
}